# xmcd
#
# Track frame offsets:
# 150
# 12151
# 25614
# 37701
# 42034
# 58694
# 70699
# 83355
# 94835
# 110268
# 117485
# 137474
#
# Disc length: 1990 seconds
#
#
# Revision: 0
# Processed by: cddbd v1.5PL3 Copyright (c) Steve Scherf et al.
# Submitted via: FreeRIP 2.60 
#
DISCID=8207c40c
DTITLE=Supercharge - The Early 80's Volume Two
DYEAR=1900
DGENRE=R&B
TTITLE0=Rocket 88
TTITLE1=Come On Babe
TTITLE2=Back Off
TTITLE3=Honkin' And Screamin'
TTITLE4=Cleanhead's Blues
TTITLE5=Ready To Go
TTITLE6=Oop Pooh Pah Doo
TTITLE7=Choo Choo Cha Boogie
TTITLE8=Hey Now Listen You
TTITLE9=Just Friends
TTITLE10=Down At The Nightclub
TTITLE11=Hol On To It
EXTD=
EXTT0=
EXTT1=
EXTT2=
EXTT3=
EXTT4=
EXTT5=
EXTT6=
EXTT7=
EXTT8=
EXTT9=
EXTT10=
EXTT11=
PLAYORDER=
